CrispyWide Thin-MinGrade-shadow.ufo
<glyph name="period" format="2">
  <advance width="207"/>
  <unicode hex="002E"/>
  <outline>
    <contour>
      <point x="-24" y="-137" type="line"/>
      <point x="-25" y="-143" type="line"/>
      <point x="-25" y="-152" type="line"/>
      <point x="-10" y="-152" type="line"/>
      <point x="141" y="-1" type="line"/>
      <point x="141" y="14" type="line"/>
      <point x="127" y="14" type="line"/>
    </contour>
    <contour>
      <point x="-21" y="-148" type="line"/>
      <point x="-21" y="-143" type="line"/>
      <point x="-20" y="-139" type="line"/>
      <point x="129" y="10" type="line"/>
      <point x="137" y="10" type="line"/>
      <point x="137" y="1" type="line"/>
      <point x="-12" y="-148" type="line"/>
    </contour>
  </outline>
</glyph>
<glyph name="one" format="2">
  <advance width="3770"/>
  <unicode hex="0031"/>
  <outline>
    <contour>
      <point x="3775" y="-1" type="line"/>
      <point x="3775" y="6" type="line"/>
      <point x="1975" y="6" type="line"/>
      <point x="1975" y="1602" type="line"/>
      <point x="193" y="1602" type="line"/>
      <point x="42" y="1451" type="line"/>
      <point x="42" y="1444" type="line"/>
      <point x="1817" y="1444" type="line"/>
      <point x="1817" y="6" type="line"/>
      <point x="167" y="6" type="line"/>
      <point x="16" y="-145" type="line"/>
      <point x="16" y="-152" type="line"/>
      <point x="3624" y="-152" type="line"/>
    </contour>
    <contour>
      <point x="1821" y="2" type="line"/>
      <point x="1821" y="1448" type="line"/>
      <point x="46" y="1448" type="line"/>
      <point x="46" y="1449" type="line"/>
      <point x="195" y="1598" type="line"/>
      <point x="1971" y="1598" type="line"/>
      <point x="1971" y="2" type="line"/>
      <point x="3771" y="2" type="line"/>
      <point x="3771" y="1" type="line"/>
      <point x="3622" y="-148" type="line"/>
      <point x="20" y="-148" type="line"/>
      <point x="20" y="-147" type="line"/>
      <point x="169" y="2" type="line"/>
    </contour>
  </outline>
</glyph>
<glyph name="eight" format="2">
  <advance width="3897"/>
  <unicode hex="0038"/>
  <outline>
    <contour>
      <point x="3841" y="-1" type="line"/>
      <point x="3841" y="522" type="line"/>
      <point x="3499" y="778" type="line"/>
      <point x="3687" y="912" type="line"/>
      <point x="3838" y="1063" type="line"/>
      <point x="3838" y="1602" type="line"/>
      <point x="231" y="1602" type="line"/>
      <point x="80" y="1451" type="line"/>
      <point x="80" y="913" type="line"/>
      <point x="422" y="668" type="line"/>
      <point x="228" y="523" type="line"/>
      <point x="77" y="372" type="line"/>
      <point x="77" y="-152" type="line"/>
      <point x="3690" y="-152" type="line"/>
    </contour>
    <contour>
      <point x="428" y="668" type="line"/>
      <point x="84" y="915" type="line"/>
      <point x="84" y="1449" type="line"/>
      <point x="233" y="1598" type="line"/>
      <point x="3834" y="1598" type="line"/>
      <point x="3834" y="1065" type="line"/>
      <point x="3685" y="916" type="line"/>
      <point x="3493" y="778" type="line"/>
      <point x="3837" y="520" type="line"/>
      <point x="3837" y="1" type="line"/>
      <point x="3688" y="-148" type="line"/>
      <point x="81" y="-148" type="line"/>
      <point x="81" y="370" type="line"/>
      <point x="230" y="519" type="line"/>
    </contour>
    <contour>
      <point x="604" y="800" type="line"/>
      <point x="3464" y="800" type="line"/>
      <point x="3683" y="957" type="line"/>
      <point x="3683" y="1448" type="line"/>
      <point x="234" y="1448" type="line"/>
      <point x="234" y="1065" type="line"/>
    </contour>
    <contour>
      <point x="606" y="804" type="line"/>
      <point x="238" y="1067" type="line"/>
      <point x="238" y="1444" type="line"/>
      <point x="3679" y="1444" type="line"/>
      <point x="3679" y="959" type="line"/>
      <point x="3462" y="804" type="line"/>
    </contour>
    <contour>
      <point x="3686" y="2" type="line"/>
      <point x="3686" y="370" type="line"/>
      <point x="3314" y="650" type="line"/>
      <point x="454" y="650" type="line"/>
      <point x="231" y="483" type="line"/>
      <point x="231" y="2" type="line"/>
    </contour>
    <contour>
      <point x="235" y="6" type="line"/>
      <point x="235" y="481" type="line"/>
      <point x="456" y="646" type="line"/>
      <point x="3312" y="646" type="line"/>
      <point x="3682" y="368" type="line"/>
      <point x="3682" y="6" type="line"/>
    </contour>
  </outline>
</glyph>
<glyph name="nine" format="2">
  <advance width="3826"/>
  <unicode hex="0039"/>
  <outline>
    <contour>
      <point x="3828" y="-1" type="line"/>
      <point x="3828" y="1602" type="line"/>
      <point x="227" y="1602" type="line"/>
      <point x="76" y="1451" type="line"/>
      <point x="76" y="646" type="line"/>
      <point x="3670" y="646" type="line"/>
      <point x="3670" y="6" type="line"/>
      <point x="235" y="6" type="line"/>
      <point x="235" y="400" type="line"/>
      <point x="228" y="400" type="line"/>
      <point x="77" y="249" type="line"/>
      <point x="77" y="-152" type="line"/>
      <point x="3677" y="-152" type="line"/>
    </contour>
    <contour>
      <point x="231" y="2" type="line"/>
      <point x="3674" y="2" type="line"/>
      <point x="3674" y="650" type="line"/>
      <point x="80" y="650" type="line"/>
      <point x="80" y="1449" type="line"/>
      <point x="229" y="1598" type="line"/>
      <point x="3824" y="1598" type="line"/>
      <point x="3824" y="1" type="line"/>
      <point x="3675" y="-148" type="line"/>
      <point x="81" y="-148" type="line"/>
      <point x="81" y="247" type="line"/>
      <point x="230" y="396" type="line"/>
      <point x="231" y="396" type="line"/>
    </contour>
    <contour>
      <point x="3674" y="800" type="line"/>
      <point x="3674" y="1448" type="line"/>
      <point x="230" y="1448" type="line"/>
      <point x="230" y="800" type="line"/>
    </contour>
    <contour>
      <point x="234" y="804" type="line"/>
      <point x="234" y="1444" type="line"/>
      <point x="3670" y="1444" type="line"/>
      <point x="3670" y="804" type="line"/>
    </contour>
  </outline>
</glyph>
<glyph name="B" format="2">
  <advance width="4022"/>
  <unicode hex="0042"/>
  <outline>
    <contour>
      <point x="3605" y="1602" type="line"/>
      <point x="373" y="1602" type="line"/>
      <point x="222" y="1451" type="line"/>
      <point x="222" y="-152" type="line"/>
      <point x="3332" y="-152" type="line"/>
      <point x="3815" y="327" type="line"/>
      <point x="3815" y="327" type="line"/>
      <point x="3815" y="327" type="line"/>
      <point x="3966" y="477" type="line"/>
      <point x="3966" y="804" type="line"/>
      <point x="3605" y="804" type="line"/>
    </contour>
    <contour>
      <point x="3601" y="800" type="line"/>
      <point x="3962" y="800" type="line"/>
      <point x="3962" y="479" type="line"/>
      <point x="3813" y="329" type="line"/>
      <point x="3330" y="-148" type="line"/>
      <point x="226" y="-148" type="line"/>
      <point x="226" y="1449" type="line"/>
      <point x="375" y="1598" type="line"/>
      <point x="3601" y="1598" type="line"/>
    </contour>
    <contour>
      <point x="3451" y="800" type="line"/>
      <point x="3451" y="1448" type="line"/>
      <point x="376" y="1448" type="line"/>
      <point x="376" y="800" type="line"/>
    </contour>
    <contour>
      <point x="380" y="804" type="line"/>
      <point x="380" y="1444" type="line"/>
      <point x="3447" y="1444" type="line"/>
      <point x="3447" y="804" type="line"/>
    </contour>
    <contour>
      <point x="3812" y="331" type="line"/>
      <point x="3812" y="650" type="line"/>
      <point x="376" y="650" type="line"/>
      <point x="376" y="2" type="line"/>
      <point x="3480" y="2" type="line"/>
    </contour>
    <contour>
      <point x="380" y="6" type="line"/>
      <point x="380" y="646" type="line"/>
      <point x="3808" y="646" type="line"/>
      <point x="3808" y="333" type="line"/>
      <point x="3478" y="6" type="line"/>
    </contour>
  </outline>
</glyph>
<glyph name="D" format="2">
  <advance width="4106"/>
  <unicode hex="0044"/>
  <outline>
    <contour>
      <point x="4052" y="1602" type="line"/>
      <point x="372" y="1602" type="line"/>
      <point x="221" y="1451" type="line"/>
      <point x="221" y="-152" type="line"/>
      <point x="3418" y="-152" type="line"/>
      <point x="3901" y="327" type="line"/>
      <point x="3901" y="327" type="line"/>
      <point x="3901" y="327" type="line"/>
      <point x="4052" y="477" type="line"/>
    </contour>
    <contour>
      <point x="225" y="-148" type="line"/>
      <point x="225" y="1449" type="line"/>
      <point x="374" y="1598" type="line"/>
      <point x="4048" y="1598" type="line"/>
      <point x="4048" y="479" type="line"/>
      <point x="3899" y="329" type="line"/>
      <point x="3416" y="-148" type="line"/>
    </contour>
    <contour>
      <point x="3898" y="331" type="line"/>
      <point x="3898" y="1448" type="line"/>
      <point x="375" y="1448" type="line"/>
      <point x="375" y="2" type="line"/>
      <point x="3566" y="2" type="line"/>
    </contour>
    <contour>
      <point x="379" y="6" type="line"/>
      <point x="379" y="1444" type="line"/>
      <point x="3894" y="1444" type="line"/>
      <point x="3894" y="333" type="line"/>
      <point x="3564" y="6" type="line"/>
    </contour>
  </outline>
</glyph>
<glyph name="I" format="2">
  <advance width="3162"/>
  <unicode hex="0049"/>
  <outline>
    <contour>
      <point x="3159" y="-1" type="line"/>
      <point x="3159" y="6" type="line"/>
      <point x="1671" y="6" type="line"/>
      <point x="1671" y="1444" type="line"/>
      <point x="3008" y="1444" type="line"/>
      <point x="3159" y="1595" type="line"/>
      <point x="3159" y="1602" type="line"/>
      <point x="175" y="1602" type="line"/>
      <point x="24" y="1451" type="line"/>
      <point x="24" y="1444" type="line"/>
      <point x="1513" y="1444" type="line"/>
      <point x="1513" y="6" type="line"/>
      <point x="175" y="6" type="line"/>
      <point x="24" y="-145" type="line"/>
      <point x="24" y="-152" type="line"/>
      <point x="3008" y="-152" type="line"/>
    </contour>
    <contour>
      <point x="1667" y="1448" type="line"/>
      <point x="1667" y="2" type="line"/>
      <point x="3155" y="2" type="line"/>
      <point x="3155" y="1" type="line"/>
      <point x="3006" y="-148" type="line"/>
      <point x="28" y="-148" type="line"/>
      <point x="28" y="-147" type="line"/>
      <point x="177" y="2" type="line"/>
      <point x="1517" y="2" type="line"/>
      <point x="1517" y="1448" type="line"/>
      <point x="28" y="1448" type="line"/>
      <point x="28" y="1449" type="line"/>
      <point x="177" y="1598" type="line"/>
      <point x="3155" y="1598" type="line"/>
      <point x="3155" y="1597" type="line"/>
      <point x="3006" y="1448" type="line"/>
    </contour>
  </outline>
</glyph>
<glyph name="K" format="2">
  <advance width="4025"/>
  <unicode hex="004B"/>
  <outline>
    <contour>
      <point x="377" y="-1" type="line"/>
      <point x="377" y="646" type="line"/>
      <point x="3814" y="646" type="line"/>
      <point x="3814" y="-152" type="line"/>
      <point x="3821" y="-152" type="line"/>
      <point x="3972" y="-1" type="line"/>
      <point x="3972" y="804" type="line"/>
      <point x="3601" y="804" type="line"/>
      <point x="3863" y="1602" type="line"/>
      <point x="3855" y="1602" type="line"/>
      <point x="3704" y="1451" type="line"/>
      <point x="3492" y="804" type="line"/>
      <point x="377" y="804" type="line"/>
      <point x="377" y="1602" type="line"/>
      <point x="370" y="1602" type="line"/>
      <point x="219" y="1451" type="line"/>
      <point x="219" y="-152" type="line"/>
      <point x="226" y="-152" type="line"/>
    </contour>
    <contour>
      <point x="3595" y="800" type="line"/>
      <point x="3968" y="800" type="line"/>
      <point x="3968" y="1" type="line"/>
      <point x="3819" y="-148" type="line"/>
      <point x="3818" y="-148" type="line"/>
      <point x="3818" y="650" type="line"/>
      <point x="373" y="650" type="line"/>
      <point x="373" y="1" type="line"/>
      <point x="224" y="-148" type="line"/>
      <point x="223" y="-148" type="line"/>
      <point x="223" y="1449" type="line"/>
      <point x="372" y="1598" type="line"/>
      <point x="373" y="1598" type="line"/>
      <point x="373" y="800" type="line"/>
      <point x="3494" y="800" type="line"/>
      <point x="3708" y="1449" type="line"/>
      <point x="3857" y="1598" type="line"/>
      <point x="3857" y="1598" type="line"/>
    </contour>
  </outline>
</glyph>
<glyph name="M" format="2">
  <advance width="4825"/>
  <unicode hex="004D"/>
  <outline>
    <contour>
      <point x="4620" y="1598" type="line"/>
      <point x="4204" y="1598" type="line"/>
      <point x="4179" y="1573" type="line"/>
      <point x="4210" y="1606" type="line"/>
      <point x="4208" y="1608" type="line"/>
      <point x="4051" y="1451" type="line"/>
      <point x="4051" y="1451" type="line"/>
      <point x="4051" y="1451" type="line"/>
      <point x="3406" y="771" type="line"/>
      <point x="2762" y="91" type="line"/>
      <point x="2757" y="87" type="line"/>
      <point x="2223" y="87" type="line"/>
      <point x="2223" y="88" type="line"/>
      <point x="792" y="1598" type="line"/>
      <point x="376" y="1598" type="line"/>
      <point x="375" y="1597" type="line"/>
      <point x="375" y="1605" type="line"/>
      <point x="221" y="1451" type="line"/>
      <point x="221" y="-152" type="line"/>
      <point x="228" y="-152" type="line"/>
      <point x="382" y="2" type="line"/>
      <point x="375" y="2" type="line"/>
      <point x="375" y="1444" type="line"/>
      <point x="640" y="1444" type="line"/>
      <point x="2071" y="-67" type="line"/>
      <point x="2624" y="-67" type="line"/>
      <point x="2778" y="87" type="line"/>
      <point x="2771" y="87" type="line"/>
      <point x="2772" y="89" type="line"/>
      <point x="2772" y="89" type="line"/>
      <point x="2772" y="89" type="line"/>
      <point x="4057" y="1444" type="line"/>
      <point x="4466" y="1444" type="line"/>
      <point x="4466" y="-152" type="line"/>
      <point x="4473" y="-152" type="line"/>
      <point x="4627" y="2" type="line"/>
      <point x="4620" y="2" type="line"/>
    </contour>
    <contour>
      <point x="371" y="1448" type="line"/>
      <point x="371" y="-2" type="line"/>
      <point x="372" y="-2" type="line"/>
      <point x="226" y="-148" type="line"/>
      <point x="225" y="-148" type="line"/>
      <point x="225" y="1449" type="line"/>
      <point x="371" y="1595" type="line"/>
      <point x="371" y="1587" type="line"/>
      <point x="378" y="1594" type="line"/>
      <point x="790" y="1594" type="line"/>
      <point x="2219" y="86" type="line"/>
      <point x="2221" y="83" type="line"/>
      <point x="2759" y="83" type="line"/>
      <point x="2764" y="89" type="line"/>
      <point x="2764" y="89" type="line"/>
      <point x="2764" y="89" type="line"/>
      <point x="3409" y="769" type="line"/>
      <point x="4053" y="1449" type="line"/>
      <point x="4098" y="1493" type="line"/>
      <point x="4067" y="1460" type="line"/>
      <point x="4069" y="1458" type="line"/>
      <point x="4206" y="1594" type="line"/>
      <point x="4616" y="1594" type="line"/>
      <point x="4616" y="-2" type="line"/>
      <point x="4617" y="-2" type="line"/>
      <point x="4471" y="-148" type="line"/>
      <point x="4470" y="-148" type="line"/>
      <point x="4470" y="1448" type="line"/>
      <point x="4055" y="1448" type="line"/>
      <point x="2770" y="91" type="line"/>
      <point x="2761" y="83" type="line"/>
      <point x="2768" y="83" type="line"/>
      <point x="2622" y="-63" type="line"/>
      <point x="2073" y="-63" type="line"/>
      <point x="642" y="1448" type="line"/>
    </contour>
  </outline>
</glyph>
<glyph name="R" format="2">
  <advance width="3796"/>
  <unicode hex="0052"/>
  <outline>
    <contour>
      <point x="230" y="-152" type="line"/>
      <point x="381" y="-1" type="line"/>
      <point x="381" y="595" type="line"/>
      <point x="3011" y="595" type="line"/>
      <point x="3507" y="370" type="line"/>
      <point x="3507" y="-152" type="line"/>
      <point x="3514" y="-152" type="line"/>
      <point x="3665" y="-1" type="line"/>
      <point x="3665" y="523" type="line"/>
      <point x="3506" y="595" type="line"/>
      <point x="3588" y="595" type="line"/>
      <point x="3739" y="746" type="line"/>
      <point x="3739" y="1602" type="line"/>
      <point x="374" y="1602" type="line"/>
      <point x="223" y="1451" type="line"/>
      <point x="223" y="-152" type="line"/>
    </contour>
    <contour>
      <point x="3488" y="599" type="line"/>
      <point x="3661" y="521" type="line"/>
      <point x="3661" y="1" type="line"/>
      <point x="3512" y="-148" type="line"/>
      <point x="3511" y="-148" type="line"/>
      <point x="3511" y="372" type="line"/>
      <point x="3011" y="599" type="line"/>
      <point x="377" y="599" type="line"/>
      <point x="377" y="1" type="line"/>
      <point x="228" y="-148" type="line"/>
      <point x="227" y="-148" type="line"/>
      <point x="227" y="1449" type="line"/>
      <point x="376" y="1598" type="line"/>
      <point x="3735" y="1598" type="line"/>
      <point x="3735" y="748" type="line"/>
      <point x="3586" y="599" type="line"/>
    </contour>
    <contour>
      <point x="3585" y="749" type="line"/>
      <point x="3585" y="1448" type="line"/>
      <point x="377" y="1448" type="line"/>
      <point x="377" y="749" type="line"/>
    </contour>
    <contour>
      <point x="381" y="753" type="line"/>
      <point x="381" y="1444" type="line"/>
      <point x="3581" y="1444" type="line"/>
      <point x="3581" y="753" type="line"/>
    </contour>
  </outline>
</glyph>
<glyph name="X" format="2">
  <advance width="3894"/>
  <unicode hex="0058"/>
  <outline>
    <contour>
      <point x="82" y="-152" type="line"/>
      <point x="233" y="-1" type="line"/>
      <point x="233" y="646" type="line"/>
      <point x="3308" y="646" type="line"/>
      <point x="3680" y="368" type="line"/>
      <point x="3681" y="-152" type="line"/>
      <point x="3688" y="-152" type="line"/>
      <point x="3839" y="-1" type="line"/>
      <point x="3839" y="522" type="line"/>
      <point x="3671" y="647" type="line"/>
      <point x="3685" y="647" type="line"/>
      <point x="3836" y="798" type="line"/>
      <point x="3836" y="1602" type="line"/>
      <point x="3829" y="1602" type="line"/>
      <point x="3678" y="1451" type="line"/>
      <point x="3678" y="804" type="line"/>
      <point x="604" y="804" type="line"/>
      <point x="236" y="1067" type="line"/>
      <point x="236" y="1602" type="line"/>
      <point x="229" y="1602" type="line"/>
      <point x="78" y="1451" type="line"/>
      <point x="78" y="913" type="line"/>
      <point x="231" y="804" type="line"/>
      <point x="226" y="804" type="line"/>
      <point x="75" y="653" type="line"/>
      <point x="75" y="-152" type="line"/>
    </contour>
    <contour>
      <point x="3659" y="651" type="line"/>
      <point x="3835" y="520" type="line"/>
      <point x="3835" y="1" type="line"/>
      <point x="3686" y="-148" type="line"/>
      <point x="3685" y="-148" type="line"/>
      <point x="3684" y="370" type="line"/>
      <point x="3310" y="650" type="line"/>
      <point x="229" y="650" type="line"/>
      <point x="229" y="1" type="line"/>
      <point x="80" y="-148" type="line"/>
      <point x="79" y="-148" type="line"/>
      <point x="79" y="651" type="line"/>
      <point x="228" y="800" type="line"/>
      <point x="243" y="800" type="line"/>
      <point x="82" y="915" type="line"/>
      <point x="82" y="1449" type="line"/>
      <point x="231" y="1598" type="line"/>
      <point x="232" y="1598" type="line"/>
      <point x="232" y="1065" type="line"/>
      <point x="602" y="800" type="line"/>
      <point x="3682" y="800" type="line"/>
      <point x="3682" y="1449" type="line"/>
      <point x="3831" y="1598" type="line"/>
      <point x="3832" y="1598" type="line"/>
      <point x="3832" y="800" type="line"/>
      <point x="3683" y="651" type="line"/>
    </contour>
  </outline>
</glyph>
<glyph name="Y" format="2">
  <advance width="4172"/>
  <unicode hex="0059"/>
  <outline>
    <contour>
      <point x="3973" y="-1" type="line"/>
      <point x="3973" y="1602" type="line"/>
      <point x="3965" y="1602" type="line"/>
      <point x="3814" y="1451" type="line"/>
      <point x="3814" y="804" type="line"/>
      <point x="378" y="804" type="line"/>
      <point x="378" y="1602" type="line"/>
      <point x="371" y="1602" type="line"/>
      <point x="220" y="1451" type="line"/>
      <point x="220" y="646" type="line"/>
      <point x="3814" y="646" type="line"/>
      <point x="3814" y="6" type="line"/>
      <point x="381" y="6" type="line"/>
      <point x="381" y="452" type="line"/>
      <point x="374" y="452" type="line"/>
      <point x="223" y="301" type="line"/>
      <point x="223" y="-152" type="line"/>
      <point x="3822" y="-152" type="line"/>
    </contour>
    <contour>
      <point x="374" y="800" type="line"/>
      <point x="3818" y="800" type="line"/>
      <point x="3818" y="1449" type="line"/>
      <point x="3967" y="1598" type="line"/>
      <point x="3969" y="1598" type="line"/>
      <point x="3969" y="1" type="line"/>
      <point x="3820" y="-148" type="line"/>
      <point x="227" y="-148" type="line"/>
      <point x="227" y="299" type="line"/>
      <point x="376" y="448" type="line"/>
      <point x="377" y="448" type="line"/>
      <point x="377" y="2" type="line"/>
      <point x="3818" y="2" type="line"/>
      <point x="3818" y="650" type="line"/>
      <point x="224" y="650" type="line"/>
      <point x="224" y="1449" type="line"/>
      <point x="373" y="1598" type="line"/>
      <point x="374" y="1598" type="line"/>
    </contour>
  </outline>
</glyph>
<glyph name="Z" format="2">
  <advance width="3720"/>
  <unicode hex="005A"/>
  <outline>
    <contour>
      <point x="169" y="424" type="line"/>
      <point x="18" y="273" type="line"/>
      <point x="18" y="-152" type="line"/>
      <point x="3572" y="-152" type="line"/>
      <point x="3723" y="-1" type="line"/>
      <point x="3723" y="565" type="line"/>
      <point x="3716" y="565" type="line"/>
      <point x="3565" y="414" type="line"/>
      <point x="3565" y="6" type="line"/>
      <point x="176" y="6" type="line"/>
      <point x="176" y="304" type="line"/>
      <point x="3566" y="1126" type="line"/>
      <point x="3717" y="1277" type="line"/>
      <point x="3717" y="1602" type="line"/>
      <point x="172" y="1602" type="line"/>
      <point x="21" y="1451" type="line"/>
      <point x="21" y="931" type="line"/>
      <point x="28" y="931" type="line"/>
      <point x="179" y="1082" type="line"/>
      <point x="179" y="1444" type="line"/>
      <point x="3559" y="1444" type="line"/>
      <point x="3559" y="1246" type="line"/>
    </contour>
    <contour>
      <point x="172" y="308" type="line"/>
      <point x="172" y="2" type="line"/>
      <point x="3569" y="2" type="line"/>
      <point x="3569" y="412" type="line"/>
      <point x="3718" y="561" type="line"/>
      <point x="3719" y="561" type="line"/>
      <point x="3719" y="1" type="line"/>
      <point x="3570" y="-148" type="line"/>
      <point x="22" y="-148" type="line"/>
      <point x="22" y="271" type="line"/>
      <point x="171" y="420" type="line"/>
      <point x="3563" y="1242" type="line"/>
      <point x="3563" y="1448" type="line"/>
      <point x="175" y="1448" type="line"/>
      <point x="175" y="1084" type="line"/>
      <point x="26" y="935" type="line"/>
      <point x="25" y="935" type="line"/>
      <point x="25" y="1449" type="line"/>
      <point x="174" y="1598" type="line"/>
      <point x="3713" y="1598" type="line"/>
      <point x="3713" y="1279" type="line"/>
      <point x="3564" y="1130" type="line"/>
    </contour>
  </outline>
</glyph>
<glyph name="F.wide" format="2">
  <advance width="3914"/>
  <outline>
    <contour>
      <point x="229" y="-152" type="line"/>
      <point x="380" y="-1" type="line"/>
      <point x="380" y="645" type="line"/>
      <point x="3531" y="645" type="line"/>
      <point x="3682" y="796" type="line"/>
      <point x="3682" y="803" type="line"/>
      <point x="380" y="803" type="line"/>
      <point x="380" y="1444" type="line"/>
      <point x="3766" y="1444" type="line"/>
      <point x="3917" y="1595" type="line"/>
      <point x="3917" y="1602" type="line"/>
      <point x="373" y="1602" type="line"/>
      <point x="222" y="1451" type="line"/>
      <point x="222" y="-152" type="line"/>
    </contour>
    <contour>
      <point x="376" y="1448" type="line"/>
      <point x="376" y="799" type="line"/>
      <point x="3678" y="799" type="line"/>
      <point x="3678" y="798" type="line"/>
      <point x="3529" y="649" type="line"/>
      <point x="376" y="649" type="line"/>
      <point x="376" y="1" type="line"/>
      <point x="227" y="-148" type="line"/>
      <point x="226" y="-148" type="line"/>
      <point x="226" y="1449" type="line"/>
      <point x="375" y="1598" type="line"/>
      <point x="3913" y="1598" type="line"/>
      <point x="3913" y="1597" type="line"/>
      <point x="3764" y="1448" type="line"/>
    </contour>
  </outline>
</glyph>
<glyph name="G.wide" format="2">
  <advance width="3933"/>
  <outline>
    <contour>
      <point x="559" y="1451" type="line"/>
      <point x="74" y="961" type="line"/>
      <point x="74" y="-152" type="line"/>
      <point x="3675" y="-152" type="line"/>
      <point x="3826" y="-1" type="line"/>
      <point x="3826" y="804" type="line"/>
      <point x="2593" y="804" type="line"/>
      <point x="2442" y="653" type="line"/>
      <point x="2442" y="646" type="line"/>
      <point x="3668" y="646" type="line"/>
      <point x="3668" y="6" type="line"/>
      <point x="232" y="6" type="line"/>
      <point x="232" y="1107" type="line"/>
      <point x="565" y="1444" type="line"/>
      <point x="3674" y="1444" type="line"/>
      <point x="3825" y="1595" type="line"/>
      <point x="3825" y="1602" type="line"/>
      <point x="709" y="1602" type="line"/>
      <point x="559" y="1451" type="line"/>
      <point x="559" y="1451" type="line"/>
    </contour>
    <contour>
      <point x="228" y="1109" type="line"/>
      <point x="228" y="2" type="line"/>
      <point x="3672" y="2" type="line"/>
      <point x="3672" y="650" type="line"/>
      <point x="2446" y="650" type="line"/>
      <point x="2446" y="651" type="line"/>
      <point x="2595" y="800" type="line"/>
      <point x="3822" y="800" type="line"/>
      <point x="3822" y="1" type="line"/>
      <point x="3673" y="-148" type="line"/>
      <point x="78" y="-148" type="line"/>
      <point x="78" y="959" type="line"/>
      <point x="561" y="1449" type="line"/>
      <point x="711" y="1598" type="line"/>
      <point x="3821" y="1598" type="line"/>
      <point x="3821" y="1597" type="line"/>
      <point x="3672" y="1448" type="line"/>
      <point x="563" y="1448" type="line"/>
    </contour>
  </outline>
</glyph>
<glyph name="I.narrow" format="2">
  <advance width="598"/>
  <outline>
    <contour>
      <point x="230" y="1449" type="line"/>
      <point x="230" y="-150" type="line"/>
      <point x="237" y="-150" type="line"/>
      <point x="388" y="1" type="line"/>
      <point x="388" y="1600" type="line"/>
      <point x="381" y="1600" type="line"/>
    </contour>
    <contour>
      <point x="235" y="-146" type="line"/>
      <point x="234" y="-146" type="line"/>
      <point x="234" y="1447" type="line"/>
      <point x="383" y="1596" type="line"/>
      <point x="384" y="1596" type="line"/>
      <point x="384" y="3" type="line"/>
    </contour>
  </outline>
</glyph>
<glyph name="M.narrow" format="2">
  <advance width="4952"/>
  <outline>
    <contour>
      <point x="233" y="-152" type="line"/>
      <point x="384" y="-1" type="line"/>
      <point x="384" y="1107" type="line"/>
      <point x="727" y="1444" type="line"/>
      <point x="2480" y="1444" type="line"/>
      <point x="2480" y="-152" type="line"/>
      <point x="2487" y="-152" type="line"/>
      <point x="2638" y="-1" type="line"/>
      <point x="2638" y="1444" type="line"/>
      <point x="4734" y="1444" type="line"/>
      <point x="4734" y="-152" type="line"/>
      <point x="4741" y="-152" type="line"/>
      <point x="4892" y="-1" type="line"/>
      <point x="4892" y="1602" type="line"/>
      <point x="872" y="1602" type="line"/>
      <point x="377" y="1112" type="line"/>
      <point x="377" y="1112" type="line"/>
      <point x="377" y="1112" type="line"/>
      <point x="226" y="962" type="line"/>
      <point x="226" y="-152" type="line"/>
    </contour>
    <contour>
      <point x="4738" y="1448" type="line"/>
      <point x="2634" y="1448" type="line"/>
      <point x="2634" y="1" type="line"/>
      <point x="2485" y="-148" type="line"/>
      <point x="2484" y="-148" type="line"/>
      <point x="2484" y="1448" type="line"/>
      <point x="725" y="1448" type="line"/>
      <point x="380" y="1109" type="line"/>
      <point x="380" y="1" type="line"/>
      <point x="231" y="-148" type="line"/>
      <point x="230" y="-148" type="line"/>
      <point x="230" y="960" type="line"/>
      <point x="379" y="1110" type="line"/>
      <point x="874" y="1598" type="line"/>
      <point x="4888" y="1598" type="line"/>
      <point x="4888" y="1" type="line"/>
      <point x="4739" y="-148" type="line"/>
      <point x="4738" y="-148" type="line"/>
    </contour>
  </outline>
</glyph>
<glyph name="N.wide" format="2">
  <advance width="4258"/>
  <outline>
    <contour>
      <point x="200" y="-152" type="line"/>
      <point x="351" y="-1" type="line"/>
      <point x="351" y="1444" type="line"/>
      <point x="689" y="1444" type="line"/>
      <point x="3329" y="-152" type="line"/>
      <point x="3829" y="-152" type="line"/>
      <point x="3980" y="-1" type="line"/>
      <point x="3980" y="1602" type="line"/>
      <point x="3973" y="1602" type="line"/>
      <point x="3822" y="1451" type="line"/>
      <point x="3822" y="6" type="line"/>
      <point x="3482" y="6" type="line"/>
      <point x="842" y="1602" type="line"/>
      <point x="344" y="1602" type="line"/>
      <point x="193" y="1451" type="line"/>
      <point x="193" y="-152" type="line"/>
    </contour>
    <contour>
      <point x="691" y="1448" type="line"/>
      <point x="347" y="1448" type="line"/>
      <point x="347" y="1" type="line"/>
      <point x="198" y="-148" type="line"/>
      <point x="197" y="-148" type="line"/>
      <point x="197" y="1449" type="line"/>
      <point x="346" y="1598" type="line"/>
      <point x="840" y="1598" type="line"/>
      <point x="3480" y="2" type="line"/>
      <point x="3826" y="2" type="line"/>
      <point x="3826" y="1449" type="line"/>
      <point x="3975" y="1598" type="line"/>
      <point x="3976" y="1598" type="line"/>
      <point x="3976" y="1" type="line"/>
      <point x="3827" y="-148" type="line"/>
      <point x="3331" y="-148" type="line"/>
    </contour>
  </outline>
</glyph>
<glyph name="P.wide" format="2">
  <advance width="3699"/>
  <outline>
    <contour>
      <point x="142" y="-152" type="line"/>
      <point x="293" y="-1" type="line"/>
      <point x="293" y="458" type="line"/>
      <point x="3500" y="458" type="line"/>
      <point x="3651" y="609" type="line"/>
      <point x="3651" y="1602" type="line"/>
      <point x="286" y="1602" type="line"/>
      <point x="135" y="1451" type="line"/>
      <point x="135" y="-152" type="line"/>
    </contour>
    <contour>
      <point x="289" y="462" type="line"/>
      <point x="289" y="1" type="line"/>
      <point x="140" y="-148" type="line"/>
      <point x="139" y="-148" type="line"/>
      <point x="139" y="1449" type="line"/>
      <point x="288" y="1598" type="line"/>
      <point x="3647" y="1598" type="line"/>
      <point x="3647" y="611" type="line"/>
      <point x="3498" y="462" type="line"/>
    </contour>
    <contour>
      <point x="3497" y="612" type="line"/>
      <point x="3497" y="1448" type="line"/>
      <point x="289" y="1448" type="line"/>
      <point x="289" y="612" type="line"/>
    </contour>
    <contour>
      <point x="293" y="616" type="line"/>
      <point x="293" y="1444" type="line"/>
      <point x="3493" y="1444" type="line"/>
      <point x="3493" y="616" type="line"/>
    </contour>
  </outline>
</glyph>
<glyph name="S.wide" format="2">
  <advance width="3592"/>
  <outline>
    <contour>
      <point x="505" y="1451" type="line"/>
      <point x="20" y="965" type="line"/>
      <point x="20" y="646" type="line"/>
      <point x="3434" y="646" type="line"/>
      <point x="3434" y="333" type="line"/>
      <point x="3104" y="6" type="line"/>
      <point x="173" y="6" type="line"/>
      <point x="22" y="-145" type="line"/>
      <point x="22" y="-152" type="line"/>
      <point x="2958" y="-152" type="line"/>
      <point x="3441" y="327" type="line"/>
      <point x="3441" y="327" type="line"/>
      <point x="3441" y="327" type="line"/>
      <point x="3592" y="477" type="line"/>
      <point x="3592" y="804" type="line"/>
      <point x="178" y="804" type="line"/>
      <point x="178" y="1111" type="line"/>
      <point x="510" y="1444" type="line"/>
      <point x="3426" y="1444" type="line"/>
      <point x="3577" y="1595" type="line"/>
      <point x="3577" y="1602" type="line"/>
      <point x="655" y="1602" type="line"/>
      <point x="505" y="1451" type="line"/>
      <point x="505" y="1451" type="line"/>
    </contour>
    <contour>
      <point x="3106" y="2" type="line"/>
      <point x="3438" y="331" type="line"/>
      <point x="3438" y="650" type="line"/>
      <point x="24" y="650" type="line"/>
      <point x="24" y="963" type="line"/>
      <point x="507" y="1449" type="line"/>
      <point x="657" y="1598" type="line"/>
      <point x="3573" y="1598" type="line"/>
      <point x="3573" y="1597" type="line"/>
      <point x="3424" y="1448" type="line"/>
      <point x="508" y="1448" type="line"/>
      <point x="174" y="1113" type="line"/>
      <point x="174" y="800" type="line"/>
      <point x="3588" y="800" type="line"/>
      <point x="3588" y="479" type="line"/>
      <point x="3439" y="329" type="line"/>
      <point x="2956" y="-148" type="line"/>
      <point x="26" y="-148" type="line"/>
      <point x="26" y="-147" type="line"/>
      <point x="175" y="2" type="line"/>
    </contour>
  </outline>
</glyph>
<glyph name="U.alt" format="2">
  <advance width="3994"/>
  <outline>
    <contour>
      <point x="3882" y="-1" type="line"/>
      <point x="3882" y="1602" type="line"/>
      <point x="3875" y="1602" type="line"/>
      <point x="3724" y="1451" type="line"/>
      <point x="3724" y="6" type="line"/>
      <point x="289" y="6" type="line"/>
      <point x="289" y="1602" type="line"/>
      <point x="282" y="1602" type="line"/>
      <point x="131" y="1451" type="line"/>
      <point x="131" y="-152" type="line"/>
      <point x="3731" y="-152" type="line"/>
    </contour>
    <contour>
      <point x="285" y="2" type="line"/>
      <point x="3728" y="2" type="line"/>
      <point x="3728" y="1449" type="line"/>
      <point x="3877" y="1598" type="line"/>
      <point x="3878" y="1598" type="line"/>
      <point x="3878" y="1" type="line"/>
      <point x="3729" y="-148" type="line"/>
      <point x="135" y="-148" type="line"/>
      <point x="135" y="1449" type="line"/>
      <point x="284" y="1598" type="line"/>
      <point x="285" y="1598" type="line"/>
    </contour>
  </outline>
</glyph>
<glyph name="Z.wide" format="2">
  <advance width="3578"/>
  <outline>
    <contour>
      <point x="3576" y="-1" type="line"/>
      <point x="3576" y="6" type="line"/>
      <point x="197" y="6" type="line"/>
      <point x="197" y="398" type="line"/>
      <point x="3383" y="1123" type="line"/>
      <point x="3534" y="1274" type="line"/>
      <point x="3534" y="1602" type="line"/>
      <point x="174" y="1602" type="line"/>
      <point x="23" y="1451" type="line"/>
      <point x="23" y="1444" type="line"/>
      <point x="3375" y="1444" type="line"/>
      <point x="3375" y="1245" type="line"/>
      <point x="190" y="521" type="line"/>
      <point x="39" y="370" type="line"/>
      <point x="39" y="-152" type="line"/>
      <point x="3425" y="-152" type="line"/>
    </contour>
    <contour>
      <point x="193" y="402" type="line"/>
      <point x="193" y="2" type="line"/>
      <point x="3572" y="2" type="line"/>
      <point x="3572" y="1" type="line"/>
      <point x="3423" y="-148" type="line"/>
      <point x="43" y="-148" type="line"/>
      <point x="43" y="368" type="line"/>
      <point x="192" y="517" type="line"/>
      <point x="3379" y="1241" type="line"/>
      <point x="3379" y="1448" type="line"/>
      <point x="27" y="1448" type="line"/>
      <point x="27" y="1449" type="line"/>
      <point x="176" y="1598" type="line"/>
      <point x="3530" y="1598" type="line"/>
      <point x="3530" y="1276" type="line"/>
      <point x="3381" y="1127" type="line"/>
    </contour>
  </outline>
</glyph>
<glyph name="one.narrow" format="2">
  <advance width="2190"/>
  <outline>
    <contour>
      <point x="1984" y="1602" type="line"/>
      <point x="173" y="1602" type="line"/>
      <point x="22" y="1451" type="line"/>
      <point x="22" y="1444" type="line"/>
      <point x="1826" y="1444" type="line"/>
      <point x="1826" y="-152" type="line"/>
      <point x="1833" y="-152" type="line"/>
      <point x="1984" y="-1" type="line"/>
    </contour>
    <contour>
      <point x="1830" y="1448" type="line"/>
      <point x="26" y="1448" type="line"/>
      <point x="26" y="1449" type="line"/>
      <point x="175" y="1598" type="line"/>
      <point x="1980" y="1598" type="line"/>
      <point x="1980" y="1" type="line"/>
      <point x="1831" y="-148" type="line"/>
      <point x="1830" y="-148" type="line"/>
    </contour>
  </outline>
</glyph>
<glyph name="three.wide" format="2">
  <advance width="3972"/>
  <outline>
    <contour>
      <point x="3770" y="-1" type="line"/>
      <point x="3770" y="804" type="line"/>
      <point x="3422" y="804" type="line"/>
      <point x="3422" y="1602" type="line"/>
      <point x="171" y="1602" type="line"/>
      <point x="20" y="1451" type="line"/>
      <point x="20" y="1444" type="line"/>
      <point x="3264" y="1444" type="line"/>
      <point x="3264" y="804" type="line"/>
      <point x="880" y="804" type="line"/>
      <point x="729" y="653" type="line"/>
      <point x="729" y="646" type="line"/>
      <point x="3612" y="646" type="line"/>
      <point x="3612" y="6" type="line"/>
      <point x="169" y="6" type="line"/>
      <point x="18" y="-145" type="line"/>
      <point x="18" y="-152" type="line"/>
      <point x="3619" y="-152" type="line"/>
    </contour>
    <contour>
      <point x="3616" y="2" type="line"/>
      <point x="3616" y="650" type="line"/>
      <point x="733" y="650" type="line"/>
      <point x="733" y="651" type="line"/>
      <point x="882" y="800" type="line"/>
      <point x="3268" y="800" type="line"/>
      <point x="3268" y="1448" type="line"/>
      <point x="24" y="1448" type="line"/>
      <point x="24" y="1449" type="line"/>
      <point x="173" y="1598" type="line"/>
      <point x="3418" y="1598" type="line"/>
      <point x="3418" y="800" type="line"/>
      <point x="3766" y="800" type="line"/>
      <point x="3766" y="1" type="line"/>
      <point x="3617" y="-148" type="line"/>
      <point x="22" y="-148" type="line"/>
      <point x="22" y="-147" type="line"/>
      <point x="171" y="2" type="line"/>
    </contour>
  </outline>
</glyph>
<glyph name="two.wide" format="2">
  <advance width="4097"/>
  <outline>
    <contour>
      <point x="3801" y="1602" type="line"/>
      <point x="457" y="1602" type="line"/>
      <point x="306" y="1451" type="line"/>
      <point x="306" y="1444" type="line"/>
      <point x="3643" y="1444" type="line"/>
      <point x="3643" y="804" type="line"/>
      <point x="454" y="804" type="line"/>
      <point x="303" y="653" type="line"/>
      <point x="303" y="-152" type="line"/>
      <point x="3683" y="-152" type="line"/>
      <point x="3834" y="-1" type="line"/>
      <point x="3834" y="6" type="line"/>
      <point x="461" y="6" type="line"/>
      <point x="461" y="646" type="line"/>
      <point x="3650" y="646" type="line"/>
      <point x="3801" y="797" type="line"/>
    </contour>
    <contour>
      <point x="457" y="650" type="line"/>
      <point x="457" y="2" type="line"/>
      <point x="3830" y="2" type="line"/>
      <point x="3830" y="1" type="line"/>
      <point x="3681" y="-148" type="line"/>
      <point x="307" y="-148" type="line"/>
      <point x="307" y="651" type="line"/>
      <point x="456" y="800" type="line"/>
      <point x="3647" y="800" type="line"/>
      <point x="3647" y="1448" type="line"/>
      <point x="310" y="1448" type="line"/>
      <point x="310" y="1449" type="line"/>
      <point x="459" y="1598" type="line"/>
      <point x="3797" y="1598" type="line"/>
      <point x="3797" y="799" type="line"/>
      <point x="3648" y="650" type="line"/>
    </contour>
  </outline>
</glyph>
